<?xml version="1.0" standalone="no"?>
<!DOCTYPE svg PUBLIC "-//W3C//DTD SVG 20010904//EN"
 "http://www.w3.org/TR/2001/REC-SVG-20010904/DTD/svg10.dtd">
<svg version="1.0" xmlns="http://www.w3.org/2000/svg"
 width="144.000000pt" height="144.000000pt" viewBox="0 0 144.000000 144.000000"
 preserveAspectRatio="xMidYMid meet">
<metadata>
Created by potrace 1.14, written by Peter Selinger 2001-2017
</metadata>
<g transform="translate(0.000000,144.000000) scale(0.100000,-0.100000)"
fill="#000000" stroke="none">
<path d="M1170 1254 c51 -56 94 -146 122 -262 28 -116 31 -371 5 -476 -10 -38
-16 -71 -14 -73 6 -6 48 95 69 167 25 87 35 269 19 351 -28 139 -87 241 -177
305 -66 47 -74 42 -24 -12z"/>
<path d="M787 1243 c-8 -16 -20 -45 -26 -65 -8 -25 -42 -65 -108 -129 -104
-99 -181 -153 -310 -218 -82 -41 -117 -68 -134 -106 -9 -19 -9 -18 -5 3 6 30
-5 28 -49 -10 -62 -54 -80 -123 -51 -192 16 -38 45 -52 130 -60 113 -12 133
-36 167 -196 27 -127 52 -160 118 -160 l41 0 -5 43 c-8 56 -23 111 -47 171
-11 28 -23 76 -26 108 l-5 58 69 0 c105 0 277 -43 346 -86 32 -19 66 -34 76
-32 9 2 26 21 37 43 18 36 20 59 19 245 0 197 -2 210 -32 324 -31 118 -79 235
-109 268 -9 10 -30 18 -49 18 -26 0 -36 -6 -47 -27z m-13 -518 c10 -44 30
-118 46 -165 16 -46 27 -86 25 -88 -2 -2 -28 5 -57 16 -56 21 -173 42 -233 42
-79 0 -123 52 -132 160 -10 105 7 131 156 245 53 40 112 89 131 110 l35 36 6
-138 c4 -76 14 -174 23 -218z m55 156 c29 -69 45 -177 36 -255 -3 -36 -10 -66
-14 -66 -17 0 -52 170 -67 320 -6 67 -5 74 8 62 9 -7 25 -34 37 -61z m-632
-293 c-2 -24 -4 -7 -4 37 0 44 2 63 4 43 2 -21 2 -57 0 -80z m-22 -58 c5 -19
4 -22 -6 -13 -6 6 -13 45 -15 85 l-3 73 9 -60 c5 -33 12 -71 15 -85z m-42 50
c4 -52 3 -54 -9 -25 -15 33 -18 78 -7 89 9 9 10 5 16 -64z"/>
<path d="M1104 1133 c43 -60 70 -128 90 -226 24 -117 19 -296 -10 -391 -4 -12
-2 -16 5 -12 21 13 62 169 68 260 11 183 -49 336 -157 399 l-31 19 35 -49z"/>
<path d="M1035 1032 c56 -85 69 -144 70 -315 0 -132 2 -154 12 -130 42 98 43
282 3 367 -23 48 -82 116 -100 116 -6 0 1 -17 15 -38z"/>
</g>
</svg>
